<svg width="1500" height="1500" xmlns="http://www.w3.org/2000/svg" xmlns:xlink="http://www.w3.org/1999/xlink">

    <defs>

      <marker id="arrow" markerWidth="10" markerHeight="10" refX="8" refY="3" orient="auto">

        <path d="M0,0 L0,6 L9,3 z" fill="black" />

      </marker>

    </defs>
<!--OLine-->

  <circle cx="530" cy="425" r="30" stroke="black" stroke-width="3" fill="none"/>

  <circle cx="610" cy="425" r="30" stroke="black" stroke-width="3" fill="none"/>

  <rect x="660" y="395" width="60" height="60" stroke="black" stroke-width="3" fill="none"/>

  <circle cx="770" cy="425" r="30" stroke="black" stroke-width="3" fill="none"/>

  <circle cx="850" cy="425" r="30" stroke="black" stroke-width="3" fill="none"/>
<!--Four Three Box-->
    <text x="480" y="375" font-size="60" font-family="Arial, Helvetica, sans-serif">F</text>

    <text x="590" y="375" font-size="60" font-family="Arial, Helvetica, sans-serif">E</text>

    <text x="750" y="375" font-size="60" font-family="Arial, Helvetica, sans-serif">N</text>

    <text x="870" y="375" font-size="60" font-family="Arial, Helvetica, sans-serif">R</text>

    <text x="670" y="275" font-size="60" font-family="Arial, Helvetica, sans-serif">M</text>

    <text x="800" y="275" font-size="60" font-family="Arial, Helvetica, sans-serif">S</text>

    <text x="540" y="275" font-size="60" font-family="Arial, Helvetica, sans-serif">W</text>
<!--Cover 1-->

    <text x="460" y="250" font-size="60" font-family="Arial, Helvetica, sans-serif">SS</text>

    <text x="590" y="100" font-size="60" font-family="Arial, Helvetica, sans-serif">FS</text>

    <text x="150" y="375" font-size="60" font-family="Arial, Helvetica, sans-serif">C</text>

    <text x="1190" y="375" font-size="60" font-family="Arial, Helvetica, sans-serif">C</text>
<!--Power Scheme against 4-3 Defense-->

<!--Labeling Keys-->

<text x="555" y="215" font-size="30" stroke="red" font-family="Arial, Helvetica, sans-serif">K</text>

<!--Block F-->

<line x1="530" y1="395" x2="500" y2="375" stroke="black" stroke-width="3"/>

<line x1="490" y1="390" x2="510" y2="360" stroke="black" stroke-width="3"/>

<!--Pull for -1-->

<line x1="610" y1="455" x2="610" y2="495" stroke="black" stroke-width="3"/>

<line x1="610" y1="495" x2="790" y2="495" stroke="black" stroke-width="3"/>

<line x1="790" y1="495" x2="790" y2="300" stroke="black" stroke-width="3"/>

<line x1="770" y1="300" x2="810" y2="300" stroke="black" stroke-width="3"/>

<!--Down Block on Eagle-->

<line x1="690" y1="395" x2="640" y2="375" stroke="black" stroke-width="3"/>

<line x1="635" y1="390" x2="645" y2="360" stroke="black" stroke-width="3"/>

<!--B to K-->

<line x1="770" y1="395" x2="770" y2="380" stroke="black" stroke-width="3"/>

<line x1="750" y1="380" x2="790" y2="380" stroke="black" stroke-width="3"/>

<line x1="750" y1="355" x2="600" y2="275" stroke="black" stroke-dasharray="4" stroke-width="3"/>

<line x1="590" y1="285" x2="610" y2="260" stroke="black" stroke-width="3"/>

<!--B to K-->

<line x1="850" y1="395" x2="800" y2="375" stroke="black" stroke-width="3"/>

<line x1="795" y1="390" x2="805" y2="360" stroke="black" stroke-width="3"/>

<circle cx="450" cy="425" r="30" stroke="black" stroke-width="3" fill="none"/> 

            <text x="437" y="440" font-size="45" font-family="Arial, Helvetica, sans-serif">Y</text>
<!--Go Route-->

               <line x1="450" y1="395" x2="450" y2="100" stroke="black" stroke-width="2" marker-end="url(#arrow)" />

               <text x="465" y="90" stroke="black" font-family="Arial, Helvetica, sans-serif">2</text>
<circle cx="300" cy="485" r="30" stroke="black" stroke-width="3" fill="none"/> 

            <text x="287" y="500" font-size="45" font-family="Arial, Helvetica, sans-serif">Z</text>
<!--Post Route-->

              <line x1="300" y1="455" x2="300" y2="230" stroke="black" stroke-width="2"/>

              <line x1="300" y1="230" x2="500" y2="130" stroke="black" stroke-width="2" marker-end="url(#arrow)"/>

              <text x="485" y="120" stroke="black" font-family="Arial, Helvetica, sans-serif">3</text>
<circle cx="150" cy="485" r="30" stroke="black" stroke-width="3" fill="none"/> 

            <text x="137" y="500" font-size="45" font-family="Arial, Helvetica, sans-serif">A</text>
<!--WR Screen-->
              <path d="M150,515 Q200,575 250,585" stroke="black" fill="none" marker-end="url(#arrow)"/>

              <text x="265" y="575" stroke="black" font-family="Arial, Helvetica, sans-serif">4</text>
<circle cx="1080" cy="425" r="30" stroke="black" stroke-width="3" fill="none"/>

            <text x="1067" y="440" font-size="45" font-family="Arial, Helvetica, sans-serif">X</text>
<!--WR Screen-->
              <path d="M1080,455 Q1030,515 980,525" stroke="black" fill="none" marker-end="url(#arrow)"/>

              <text x="965" y="515" stroke="black" font-family="Arial, Helvetica, sans-serif">1</text>
<circle cx="1230" cy="485" r="30" stroke="black" stroke-width="3" fill="none"/>

            <text x="1217" y="500" font-size="45" font-family="Arial, Helvetica, sans-serif">H</text>
<!--Go Route-->

               <line x1="1230" y1="455" x2="1230" y2="100" stroke="black" stroke-width="2" marker-end="url(#arrow)" />

               <text x="1245" y="90" stroke="black" font-family="Arial, Helvetica, sans-serif">5</text>
<!--Shotgun Formation-->

        <text x="668" y="635" font-size="60" font-family="Arial, Helvetica, sans-serif">Q</text>

        <circle cx="770" cy="615" r="30" stroke="black" stroke-width="3" fill="none"/>

        <text x="757" y="630" font-size="45" font-family="Arial, Helvetica, sans-serif">A</text>

        <!--RB Block-->

        <line x1="770" y1="585" x2 ="770" y2="505" stroke="black" stroke-width="3"/>

        <line x1="750" y1="505" x2="790" y2="505" stroke="black" stroke-width="3"/>
</svg>
